<svg width="29" height="29" viewBox="0 0 29 29" fill="none" xmlns="http://www.w3.org/2000/svg">
<g clip-path="url(#clip0_2105_252)">
<path opacity="0.2" d="M21.4431 22.0958C20.9603 22.0856 20.4897 21.9424 20.083 21.6819C19.6763 21.4215 19.3493 21.0539 19.1381 20.6196C18.9269 20.1853 18.8395 19.7012 18.8857 19.2205C18.9318 18.7398 19.1097 18.2811 19.3997 17.895C19.6897 17.5088 20.0806 17.2102 20.5294 17.0319C20.9782 16.8535 21.4675 16.8025 21.9435 16.8843C22.4194 16.9662 22.8635 17.1777 23.227 17.4957C23.5905 17.8137 23.8592 18.2257 24.0036 18.6866C25.0403 16.4792 25.2763 13.9799 24.6712 11.6175C24.0661 9.25517 22.6576 7.17708 20.6874 5.73994C18.7172 4.30281 16.3083 3.59626 13.874 3.74157C11.4397 3.88687 9.13183 4.87496 7.34659 6.53626C5.56136 8.19755 4.41005 10.4284 4.09026 12.846C3.77048 15.2636 4.30217 17.7171 5.59407 19.7854C6.88597 21.8538 8.85752 23.4079 11.1703 24.1811C13.4831 24.9543 15.993 24.8984 18.269 24.023C18.5753 23.4455 19.0319 22.9615 19.5906 22.6222C20.1494 22.283 20.7895 22.1011 21.4431 22.0958Z" fill="#019EAB"/>
<path d="M19.75 11.5957L14.5 14.2207V8.0957" stroke="#019EAB" stroke-width="1.5" stroke-linecap="round" stroke-linejoin="round"/>
<path d="M14.5 24.7207C12.4233 24.7207 10.3932 24.1049 8.66652 22.9511C6.9398 21.7974 5.59399 20.1575 4.79927 18.2389C4.00455 16.3203 3.79661 14.2091 4.20176 12.1723C4.6069 10.1355 5.60693 8.26454 7.07538 6.79609C8.54383 5.32764 10.4148 4.32761 12.4516 3.92246C14.4884 3.51732 16.5996 3.72525 18.5182 4.51997C20.4368 5.31469 22.0767 6.6605 23.2304 8.38722C24.3842 10.1139 25 12.144 25 14.2207" stroke="#019EAB" stroke-width="1.5" stroke-linecap="round" stroke-linejoin="round"/>
<path d="M18 24.7207C18.4014 23.2113 19.8156 22.0957 21.5 22.0957C23.1844 22.0957 24.5986 23.2113 25 24.7207" stroke="#FFCF56" stroke-width="1.5" stroke-linecap="round" stroke-linejoin="round"/>
<path d="M21.5 22.0957C22.9497 22.0957 24.125 20.9205 24.125 19.4707C24.125 18.021 22.9497 16.8457 21.5 16.8457C20.0503 16.8457 18.875 18.021 18.875 19.4707C18.875 20.9205 20.0503 22.0957 21.5 22.0957Z" stroke="#FFCF56" stroke-width="1.5" stroke-linecap="round" stroke-linejoin="round"/>
</g>
<defs>
<clipPath id="clip0_2105_252">
<rect width="28" height="28" fill="white" transform="translate(0.5 0.220703)"/>
</clipPath>
</defs>
</svg>
