<svg width="20" height="21" viewBox="0 0 20 21" fill="none" xmlns="http://www.w3.org/2000/svg">
<path opacity="0.2" d="M17.5 4.5957V15.8457C17.5 16.1772 17.3683 16.4952 17.1339 16.7296C16.8995 16.964 16.5815 17.0957 16.25 17.0957H3.75V3.3457H16.25C16.5815 3.3457 16.8995 3.4774 17.1339 3.71182C17.3683 3.94624 17.5 4.26418 17.5 4.5957Z" fill="#F8F8F8"/>
<path d="M9.375 17.0957C9.375 17.2615 9.30915 17.4204 9.19194 17.5376C9.07473 17.6549 8.91576 17.7207 8.75 17.7207H3.75C3.58424 17.7207 3.42527 17.6549 3.30806 17.5376C3.19085 17.4204 3.125 17.2615 3.125 17.0957V3.3457C3.125 3.17994 3.19085 3.02097 3.30806 2.90376C3.42527 2.78655 3.58424 2.7207 3.75 2.7207H8.75C8.91576 2.7207 9.07473 2.78655 9.19194 2.90376C9.30915 3.02097 9.375 3.17994 9.375 3.3457C9.375 3.51146 9.30915 3.67043 9.19194 3.78764C9.07473 3.90486 8.91576 3.9707 8.75 3.9707H4.375V16.4707H8.75C8.91576 16.4707 9.07473 16.5366 9.19194 16.6538C9.30915 16.771 9.375 16.9299 9.375 17.0957ZM17.9422 9.77852L14.8172 6.65352C14.6999 6.53624 14.5409 6.47036 14.375 6.47036C14.2091 6.47036 14.0501 6.53624 13.9328 6.65352C13.8155 6.77079 13.7497 6.92985 13.7497 7.0957C13.7497 7.26156 13.8155 7.42062 13.9328 7.53789L15.9914 9.5957H8.75C8.58424 9.5957 8.42527 9.66155 8.30806 9.77876C8.19085 9.89597 8.125 10.0549 8.125 10.2207C8.125 10.3865 8.19085 10.5454 8.30806 10.6626C8.42527 10.7799 8.58424 10.8457 8.75 10.8457H15.9914L13.9328 12.9035C13.8155 13.0208 13.7497 13.1799 13.7497 13.3457C13.7497 13.5116 13.8155 13.6706 13.9328 13.7879C14.0501 13.9052 14.2091 13.9711 14.375 13.9711C14.5409 13.9711 14.6999 13.9052 14.8172 13.7879L17.9422 10.6629C18.0003 10.6048 18.0464 10.5359 18.0779 10.46C18.1093 10.3842 18.1255 10.3028 18.1255 10.2207C18.1255 10.1386 18.1093 10.0572 18.0779 9.98137C18.0464 9.90549 18.0003 9.83656 17.9422 9.77852Z" fill="#F8F8F8"/>
</svg>
