<svg width="25" height="25" viewBox="0 0 25 25" fill="none" xmlns="http://www.w3.org/2000/svg">
<path opacity="0.2" d="M19.25 3.9707V20.4707H4.25C3.85218 20.4707 3.47064 20.3127 3.18934 20.0314C2.90804 19.7501 2.75 19.3685 2.75 18.9707V5.4707C2.75 5.07288 2.90804 4.69135 3.18934 4.41004C3.47064 4.12874 3.85218 3.9707 4.25 3.9707H19.25Z" fill="#019EAB"/>
<path d="M13.7806 12.7513L10.0306 16.5013C9.96094 16.571 9.87822 16.6263 9.78717 16.664C9.69613 16.7017 9.59855 16.7211 9.5 16.7211C9.40145 16.7211 9.30387 16.7017 9.21283 16.664C9.12178 16.6263 9.03906 16.571 8.96937 16.5013C8.89969 16.4316 8.84442 16.3489 8.8067 16.2579C8.76899 16.1668 8.74958 16.0692 8.74958 15.9707C8.74958 15.8722 8.76899 15.7746 8.8067 15.6835C8.84442 15.5925 8.89969 15.5098 8.96937 15.4401L11.4397 12.9707H2.75C2.55109 12.9707 2.36032 12.8917 2.21967 12.751C2.07902 12.6104 2 12.4196 2 12.2207C2 12.0218 2.07902 11.831 2.21967 11.6904C2.36032 11.5497 2.55109 11.4707 2.75 11.4707H11.4397L8.96937 9.00133C8.82864 8.8606 8.74958 8.66973 8.74958 8.4707C8.74958 8.27168 8.82864 8.08081 8.96937 7.94008C9.11011 7.79935 9.30098 7.72029 9.5 7.72029C9.69902 7.72029 9.88989 7.79935 10.0306 7.94008L13.7806 11.6901C13.8504 11.7597 13.9057 11.8424 13.9434 11.9335C13.9812 12.0245 14.0006 12.1221 14.0006 12.2207C14.0006 12.3193 13.9812 12.4169 13.9434 12.5079C13.9057 12.599 13.8504 12.6817 13.7806 12.7513ZM19.25 3.2207H13.25C13.0511 3.2207 12.8603 3.29972 12.7197 3.44037C12.579 3.58103 12.5 3.77179 12.5 3.9707C12.5 4.16962 12.579 4.36038 12.7197 4.50103C12.8603 4.64169 13.0511 4.7207 13.25 4.7207H18.5V19.7207H13.25C13.0511 19.7207 12.8603 19.7997 12.7197 19.9404C12.579 20.081 12.5 20.2718 12.5 20.4707C12.5 20.6696 12.579 20.8604 12.7197 21.001C12.8603 21.1417 13.0511 21.2207 13.25 21.2207H19.25C19.4489 21.2207 19.6397 21.1417 19.7803 21.001C19.921 20.8604 20 20.6696 20 20.4707V3.9707C20 3.77179 19.921 3.58103 19.7803 3.44037C19.6397 3.29972 19.4489 3.2207 19.25 3.2207Z" fill="#019EAB"/>
</svg>
