<svg width="20" height="21" viewBox="0 0 20 21" fill="none" xmlns="http://www.w3.org/2000/svg">
<path opacity="0.2" d="M15.625 3.3457V17.0957H3.125C2.79348 17.0957 2.47554 16.964 2.24112 16.7296C2.0067 16.4952 1.875 16.1772 1.875 15.8457V4.5957C1.875 4.26418 2.0067 3.94624 2.24112 3.71182C2.47554 3.4774 2.79348 3.3457 3.125 3.3457H15.625Z" fill="#F8F8F8"/>
<path d="M11.0672 10.6629L7.94219 13.7879C7.88412 13.846 7.81518 13.892 7.73931 13.9234C7.66344 13.9549 7.58212 13.9711 7.5 13.9711C7.41788 13.9711 7.33656 13.9549 7.26069 13.9234C7.18482 13.892 7.11588 13.846 7.05781 13.7879C6.99974 13.7298 6.95368 13.6609 6.92225 13.585C6.89083 13.5091 6.87465 13.4278 6.87465 13.3457C6.87465 13.2636 6.89083 13.1823 6.92225 13.1064C6.95368 13.0305 6.99974 12.9616 7.05781 12.9035L9.11641 10.8457H1.875C1.70924 10.8457 1.55027 10.7799 1.43306 10.6626C1.31585 10.5454 1.25 10.3865 1.25 10.2207C1.25 10.0549 1.31585 9.89597 1.43306 9.77876C1.55027 9.66155 1.70924 9.5957 1.875 9.5957H9.11641L7.05781 7.53789C6.94054 7.42062 6.87465 7.26156 6.87465 7.0957C6.87465 6.92985 6.94054 6.77079 7.05781 6.65352C7.17509 6.53624 7.33415 6.47036 7.5 6.47036C7.66585 6.47036 7.82491 6.53624 7.94219 6.65352L11.0672 9.77852C11.1253 9.83656 11.1714 9.90549 11.2029 9.98137C11.2343 10.0572 11.2505 10.1386 11.2505 10.2207C11.2505 10.3028 11.2343 10.3842 11.2029 10.46C11.1714 10.5359 11.1253 10.6048 11.0672 10.6629ZM15.625 2.7207H10.625C10.4592 2.7207 10.3003 2.78655 10.1831 2.90376C10.0658 3.02097 10 3.17994 10 3.3457C10 3.51146 10.0658 3.67043 10.1831 3.78764C10.3003 3.90486 10.4592 3.9707 10.625 3.9707H15V16.4707H10.625C10.4592 16.4707 10.3003 16.5366 10.1831 16.6538C10.0658 16.771 10 16.9299 10 17.0957C10 17.2615 10.0658 17.4204 10.1831 17.5376C10.3003 17.6549 10.4592 17.7207 10.625 17.7207H15.625C15.7908 17.7207 15.9497 17.6549 16.0669 17.5376C16.1842 17.4204 16.25 17.2615 16.25 17.0957V3.3457C16.25 3.17994 16.1842 3.02097 16.0669 2.90376C15.9497 2.78655 15.7908 2.7207 15.625 2.7207Z" fill="#F8F8F8"/>
</svg>
