<svg width="25" height="25" viewBox="0 0 25 25" fill="none" xmlns="http://www.w3.org/2000/svg">
<path opacity="0.2" d="M21.5 5.4707V18.9707C21.5 19.3685 21.342 19.7501 21.0607 20.0314C20.7794 20.3127 20.3978 20.4707 20 20.4707H5V3.9707H20C20.3978 3.9707 20.7794 4.12874 21.0607 4.41004C21.342 4.69135 21.5 5.07288 21.5 5.4707Z" fill="#FFCF56"/>
<path d="M11.75 20.4707C11.75 20.6696 11.671 20.8604 11.5303 21.001C11.3897 21.1417 11.1989 21.2207 11 21.2207H5C4.80109 21.2207 4.61032 21.1417 4.46967 21.001C4.32902 20.8604 4.25 20.6696 4.25 20.4707V3.9707C4.25 3.77179 4.32902 3.58103 4.46967 3.44037C4.61032 3.29972 4.80109 3.2207 5 3.2207H11C11.1989 3.2207 11.3897 3.29972 11.5303 3.44037C11.671 3.58103 11.75 3.77179 11.75 3.9707C11.75 4.16962 11.671 4.36038 11.5303 4.50103C11.3897 4.64169 11.1989 4.7207 11 4.7207H5.75V19.7207H11C11.1989 19.7207 11.3897 19.7997 11.5303 19.9404C11.671 20.081 11.75 20.2718 11.75 20.4707ZM22.0306 11.6901L18.2806 7.94008C18.1399 7.79935 17.949 7.72029 17.75 7.72029C17.551 7.72029 17.3601 7.79935 17.2194 7.94008C17.0786 8.08081 16.9996 8.27168 16.9996 8.4707C16.9996 8.66973 17.0786 8.8606 17.2194 9.00133L19.6897 11.4707H11C10.8011 11.4707 10.6103 11.5497 10.4697 11.6904C10.329 11.831 10.25 12.0218 10.25 12.2207C10.25 12.4196 10.329 12.6104 10.4697 12.751C10.6103 12.8917 10.8011 12.9707 11 12.9707H19.6897L17.2194 15.4401C17.0786 15.5808 16.9996 15.7717 16.9996 15.9707C16.9996 16.1697 17.0786 16.3606 17.2194 16.5013C17.3601 16.6421 17.551 16.7211 17.75 16.7211C17.949 16.7211 18.1399 16.6421 18.2806 16.5013L22.0306 12.7513C22.1004 12.6817 22.1557 12.599 22.1934 12.5079C22.2312 12.4169 22.2506 12.3193 22.2506 12.2207C22.2506 12.1221 22.2312 12.0245 22.1934 11.9335C22.1557 11.8424 22.1004 11.7597 22.0306 11.6901Z" fill="#FFCF56"/>
</svg>
