<svg width="29" height="29" viewBox="0 0 29 29" fill="none" xmlns="http://www.w3.org/2000/svg">
<g clip-path="url(#clip0_2105_287)">
<path opacity="0.2" d="M11.875 5.4707H6.625C6.14175 5.4707 5.75 5.86245 5.75 6.3457V11.5957C5.75 12.079 6.14175 12.4707 6.625 12.4707H11.875C12.3582 12.4707 12.75 12.079 12.75 11.5957V6.3457C12.75 5.86245 12.3582 5.4707 11.875 5.4707Z" fill="#019EAB"/>
<path opacity="0.2" d="M22.375 5.4707H17.125C16.6418 5.4707 16.25 5.86245 16.25 6.3457V11.5957C16.25 12.079 16.6418 12.4707 17.125 12.4707H22.375C22.8582 12.4707 23.25 12.079 23.25 11.5957V6.3457C23.25 5.86245 22.8582 5.4707 22.375 5.4707Z" fill="#019EAB"/>
<path opacity="0.2" d="M11.875 15.9707H6.625C6.14175 15.9707 5.75 16.3625 5.75 16.8457V22.0957C5.75 22.579 6.14175 22.9707 6.625 22.9707H11.875C12.3582 22.9707 12.75 22.579 12.75 22.0957V16.8457C12.75 16.3625 12.3582 15.9707 11.875 15.9707Z" fill="#019EAB"/>
<path opacity="0.2" d="M22.375 15.9707H17.125C16.6418 15.9707 16.25 16.3625 16.25 16.8457V22.0957C16.25 22.579 16.6418 22.9707 17.125 22.9707H22.375C22.8582 22.9707 23.25 22.579 23.25 22.0957V16.8457C23.25 16.3625 22.8582 15.9707 22.375 15.9707Z" fill="#019EAB"/>
<path d="M22.375 15.9707H17.125C16.6418 15.9707 16.25 16.3625 16.25 16.8457V22.0957C16.25 22.579 16.6418 22.9707 17.125 22.9707H22.375C22.8582 22.9707 23.25 22.579 23.25 22.0957V16.8457C23.25 16.3625 22.8582 15.9707 22.375 15.9707Z" stroke="#019EAB" stroke-width="1.5" stroke-linecap="round" stroke-linejoin="round"/>
<path d="M11.875 5.4707H6.625C6.14175 5.4707 5.75 5.86245 5.75 6.3457V11.5957C5.75 12.079 6.14175 12.4707 6.625 12.4707H11.875C12.3582 12.4707 12.75 12.079 12.75 11.5957V6.3457C12.75 5.86245 12.3582 5.4707 11.875 5.4707Z" stroke="#019EAB" stroke-width="1.5" stroke-linecap="round" stroke-linejoin="round"/>
<path d="M22.375 5.4707H17.125C16.6418 5.4707 16.25 5.86245 16.25 6.3457V11.5957C16.25 12.079 16.6418 12.4707 17.125 12.4707H22.375C22.8582 12.4707 23.25 12.079 23.25 11.5957V6.3457C23.25 5.86245 22.8582 5.4707 22.375 5.4707Z" stroke="#019EAB" stroke-width="1.5" stroke-linecap="round" stroke-linejoin="round"/>
<path d="M11.875 15.9707H6.625C6.14175 15.9707 5.75 16.3625 5.75 16.8457V22.0957C5.75 22.579 6.14175 22.9707 6.625 22.9707H11.875C12.3582 22.9707 12.75 22.579 12.75 22.0957V16.8457C12.75 16.3625 12.3582 15.9707 11.875 15.9707Z" stroke="#FFCF56" stroke-width="1.5" stroke-linecap="round" stroke-linejoin="round"/>
</g>
<defs>
<clipPath id="clip0_2105_287">
<rect width="28" height="28" fill="white" transform="translate(0.5 0.220703)"/>
</clipPath>
</defs>
</svg>
