<svg width="29" height="29" viewBox="0 0 29 29" fill="none" xmlns="http://www.w3.org/2000/svg">
<g clip-path="url(#clip0_2105_243)">
<path opacity="0.2" d="M9.6875 17.7207C12.8286 17.7207 15.375 15.1743 15.375 12.0332C15.375 8.89208 12.8286 6.3457 9.6875 6.3457C6.54638 6.3457 4 8.89208 4 12.0332C4 15.1743 6.54638 17.7207 9.6875 17.7207Z" fill="#019EAB"/>
<path d="M1.6189 22.0958C2.4929 20.752 3.68871 19.6477 5.09775 18.8833C6.50679 18.1189 8.08445 17.7185 9.68749 17.7185C11.2905 17.7185 12.8682 18.1189 14.2772 18.8833C15.6863 19.6477 16.8821 20.752 17.7561 22.0958" stroke="#019EAB" stroke-width="1.5" stroke-linecap="round" stroke-linejoin="round"/>
<path d="M19.3125 17.7207C20.9155 17.7198 22.4932 18.1195 23.9024 18.8836C25.3115 19.6476 26.5073 20.7518 27.3811 22.0957" stroke="#FFCF56" stroke-width="1.5" stroke-linecap="round" stroke-linejoin="round"/>
<path d="M9.6875 17.7207C12.8286 17.7207 15.375 15.1743 15.375 12.0332C15.375 8.89208 12.8286 6.3457 9.6875 6.3457C6.54638 6.3457 4 8.89208 4 12.0332C4 15.1743 6.54638 17.7207 9.6875 17.7207Z" stroke="#019EAB" stroke-width="1.5" stroke-linecap="round" stroke-linejoin="round"/>
<path d="M17.2005 6.75039C17.9785 6.44009 18.8154 6.30546 19.6515 6.35612C20.4875 6.40677 21.3021 6.64147 22.0369 7.04344C22.7718 7.44541 23.4088 8.00472 23.9024 8.68142C24.396 9.35811 24.7341 10.1355 24.8924 10.958C25.0508 11.7805 25.0255 12.6278 24.8184 13.4394C24.6113 14.251 24.2275 15.0068 23.6945 15.6529C23.1614 16.299 22.4922 16.8193 21.7347 17.1768C20.9772 17.5342 20.1501 17.72 19.3125 17.7207" stroke="#FFCF56" stroke-width="1.5" stroke-linecap="round" stroke-linejoin="round"/>
</g>
<defs>
<clipPath id="clip0_2105_243">
<rect width="28" height="28" fill="white" transform="translate(0.5 0.220703)"/>
</clipPath>
</defs>
</svg>
